<svg xmlns="http://www.w3.org/2000/svg" version="1.1" xmlns:xlink="http://www.w3.org/1999/xlink" xmlns:svgjs="http://svgjs.com/svgjs" width="1000" height="1000"><g transform="matrix(14.925373134328359,0,0,14.925373134328359,-0.05598962129050733,149.22674583321185)"><svg xmlns="http://www.w3.org/2000/svg" version="1.1" xmlns:xlink="http://www.w3.org/1999/xlink" xmlns:svgjs="http://svgjs.com/svgjs" width="67" height="47"><svg xmlns="http://www.w3.org/2000/svg" width="67" height="47" viewBox="0 0 67 47"><g id="Group_49" data-name="Group 49" transform="translate(-7 -10)"><g id="border-effect" data-name="Rectangle 292" transform="translate(7 10)" fill="none" stroke="#52ff12" stroke-width="6"><rect width="62" height="41" rx="6" stroke="none"></rect><rect x="3" y="3" width="56" height="35" rx="3" fill="none"></rect></g><path id="text" data-name="Path 14" d="M20.278-18.021A4.947,4.947,0,0,0,18.183-20.1a6.779,6.779,0,0,0-3.209-.72A6.56,6.56,0,0,0,9.863-18.7a8.121,8.121,0,0,0-1.922,5.666,8.218,8.218,0,0,0,2.018,5.9,7.3,7.3,0,0,0,5.553,2.122A6.655,6.655,0,0,0,19.605-6.26a7.064,7.064,0,0,0,2.44-3.583h-8.34V-14.75H28v6.192a13.117,13.117,0,0,1-2.479,4.634A13.1,13.1,0,0,1,21.085-.458,13.569,13.569,0,0,1,15.013.866,14.224,14.224,0,0,1,7.884-.906,12.539,12.539,0,0,1,3-5.832a14.609,14.609,0,0,1-1.749-7.2A14.72,14.72,0,0,1,3-20.26a12.54,12.54,0,0,1,4.862-4.946,14.117,14.117,0,0,1,7.11-1.772A13.682,13.682,0,0,1,23.141-24.6a11.216,11.216,0,0,1,4.4,6.581ZM41.415.944a13.717,13.717,0,0,1-5.3-.974,8.659,8.659,0,0,1-3.747-2.882,7.943,7.943,0,0,1-1.48-4.6H37.88A3.459,3.459,0,0,0,38.917-5.19a3.309,3.309,0,0,0,2.306.8,3.573,3.573,0,0,0,2.306-.682,2.292,2.292,0,0,0,.846-1.889A2.251,2.251,0,0,0,43.7-8.636a5.419,5.419,0,0,0-1.653-1.09,26.348,26.348,0,0,0-2.786-.974A30.094,30.094,0,0,1,35-12.336a7.908,7.908,0,0,1-2.844-2.414,6.791,6.791,0,0,1-1.191-4.167,7.2,7.2,0,0,1,2.729-5.978,11.111,11.111,0,0,1,7.11-2.161,11.239,11.239,0,0,1,7.187,2.161,7.773,7.773,0,0,1,2.921,6.017H43.8a2.833,2.833,0,0,0-.961-2.083,3.356,3.356,0,0,0-2.267-.759,2.8,2.8,0,0,0-1.922.643,2.333,2.333,0,0,0-.73,1.85,2.3,2.3,0,0,0,1.23,2.064,20.014,20.014,0,0,0,3.843,1.6,35.272,35.272,0,0,1,4.247,1.713,8.11,8.11,0,0,1,2.825,2.376,6.418,6.418,0,0,1,1.191,4.011,7.949,7.949,0,0,1-1.172,4.245,8.246,8.246,0,0,1-3.4,3.038A11.515,11.515,0,0,1,41.415.944Z" transform="translate(22.746 56.056)" fill="#3b3b3b"></path></g></svg></svg></g></svg>