<?xml version="1.0" encoding="utf-8"?>
<svg viewBox="742.355 262.165 216.818 520.503" xmlns="http://www.w3.org/2000/svg">
  <path d="M 5158.726 3553.404 C 5167.726 3567.404 5189.715 9078.215 5114.278 9078.307 C 5007.329 9078.438 4964.357 9163.85 4543.633 9076.12 C 4150.112 8994.062 3882.834 8870.17 3818.834 8836.17 C 3798.834 8825.17 3770.834 8807.17 3756.834 8795.17 C 3742.834 8784.17 3702.834 8764.17 3666.834 8751.17 L 3602.834 8727.17 L 3707.834 8727.17 L 3812.834 8726.17 L 3777.834 8692.17 C 3758.834 8673.17 3688.834 8628.17 3622.834 8592.17 L 3502.834 8526.17 L 3551.834 8526.17 L 3601.834 8526.17 L 3568.834 8492.17 C 3550.834 8473.17 3509.834 8447.17 3478.834 8433.17 C 3361.834 8383.17 3366.834 8387.17 3425.834 8387.17 C 3453.834 8386.17 3477.834 8382.17 3477.834 8378.17 C 3477.834 8367.17 3411.834 8306.17 3362.834 8270.17 C 3309.834 8232.17 3167.834 8106.17 3167.834 8097.17 C 3167.834 8089.17 3269.834 8099.17 3305.834 8110.17 C 3320.834 8115.17 3310.834 8101.17 3274.834 8063.17 C 3213.834 8001.17 3156.834 7897.17 3132.834 7807.17 C 3123.834 7772.17 3118.834 7742.17 3120.834 7740.17 C 3122.834 7737.17 3157.834 7770.17 3197.834 7812.17 L 3270.834 7889.17 L 3264.834 7849.17 C 3260.834 7827.17 3246.834 7783.17 3232.834 7752.17 C 3202.834 7683.17 3164.834 7552.17 3169.834 7530.17 C 3172.834 7514.17 3267.834 7606.17 3331.834 7686.17 L 3358.834 7721.17 L 3352.834 7676.17 C 3345.834 7627.17 3324.834 7552.17 3302.834 7496.17 C 3276.834 7431.17 3206.834 7195.17 3209.834 7185.17 C 3211.834 7180.17 3245.834 7196.17 3286.834 7221.17 C 3326.834 7246.17 3361.834 7266.17 3364.834 7266.17 C 3374.834 7266.17 3356.834 7193.17 3335.834 7150.17 C 3324.834 7126.17 3291.834 7072.17 3261.834 7029.17 C 3207.834 6952.17 3207.834 6951.17 3232.834 6948.17 L 3257.834 6945.17 L 3226.834 6913.17 C 3167.834 6855.17 3144.834 6766.17 3166.834 6686.17 C 3173.834 6662.17 3174.834 6663.17 3214.834 6714.17 C 3237.834 6743.17 3259.834 6775.17 3262.834 6787.17 C 3266.834 6798.17 3271.834 6805.17 3274.834 6803.17 C 3281.834 6795.17 3246.834 6664.17 3225.834 6621.17 C 3172.834 6516.17 3067.834 6360.17 2987.834 6272.17 C 2933.834 6212.17 2982.834 6243.17 3071.834 6327.17 C 3155.834 6406.17 3154.834 6406.17 3133.834 6285.17 C 3108.834 6146.17 3021.834 5980.17 2837.834 5721.17 C 2787.834 5651.17 2748.834 5591.17 2751.834 5589.17 C 2764.834 5576.17 2966.834 5687.17 3015.834 5733.17 C 3044.834 5760.17 3067.834 5781.17 3067.834 5780.17 C 3067.834 5777.17 2936.834 5511.17 2915.834 5472.17 C 2904.834 5450.17 2888.834 5409.17 2881.834 5382.17 C 2866.834 5326.17 2862.834 5216.17 2875.834 5216.17 C 2880.834 5216.17 2916.834 5250.17 2956.834 5291.17 C 2996.834 5332.17 3026.834 5359.17 3023.834 5350.17 C 3020.834 5341.17 3005.834 5261.17 2992.834 5172.17 C 2978.834 5084.17 2964.834 5002.17 2962.834 4990.17 C 2952.834 4943.17 2809.834 4714.17 2953.834 4818.17 C 2997.834 4850.17 3037.834 4876.17 3041.834 4876.17 C 3048.834 4876.17 3047.834 4866.17 3022.834 4616.17 C 3014.834 4536.17 3007.834 4435.17 3006.834 4390.17 L 3004.834 4310.17 L 2949.834 4285.17 C 2918.834 4272.17 2954.412 3963.067 2960.157 3811.402 C 3154.376 3701.383 2828.957 3574.439 3281.79 3574.62 C 3673.392 3574.777 5156.13 3548.954 5158.726 3553.404 Z" transform="matrix(-0.089702, 0, 0, -0.093568, 1206.00354, 1115.10437)"/>
</svg>