<svg data-name="Layer 1" xmlns="http://www.w3.org/2000/svg" viewBox="0 0 263.53 146.84">
  <path d="M243.88 7.91H19.68c-7.5 0-13.7 6.4-13.7 14.2V94a14 14 0 0 0 13.7 14.2H124c.6 0 .4.8.4 5.6 0 16.7 19.3 23.9 19.3 23.9a58.61 58.61 0 0 1-3.1-19.6c0-5.3.5-7.2 3.4-8.9a7.05 7.05 0 0 1 4.2-1H244c7.5 0 13.7-6.4 13.7-14.2V22.11c-.12-7.8-6.22-14.2-13.82-14.2Z" fill="#fff" stroke="#000" stroke-miterlimit="10" stroke-width="5"/>
  <g data-name="Group 49">
    <g data-name="border-effect" fill="none">
      <path d="M24.88 25.31h40a4.74 4.74 0 0 1 4.8 4.8v23.2a4.74 4.74 0 0 1-4.8 4.8h-40a4.74 4.74 0 0 1-4.8-4.8v-23.2a4.87 4.87 0 0 1 4.8-4.8Z"/>
      <path d="M24.88 27.71h40a2.43 2.43 0 0 1 2.4 2.4v23.2a2.43 2.43 0 0 1-2.4 2.4h-40a2.43 2.43 0 0 1-2.4-2.4v-23.2a2.43 2.43 0 0 1 2.4-2.4Z" stroke="#52ff12" stroke-width="6"/>
    </g>
    <path data-name="text" d="M48.88 47.71a4.62 4.62 0 0 0-1.7-1.7 5.83 5.83 0 0 0-2.6-.6 5.44 5.44 0 0 0-4.1 1.7 6.31 6.31 0 0 0-1.5 4.5 6.73 6.73 0 0 0 1.6 4.7A5.72 5.72 0 0 0 45 58a5.58 5.58 0 0 0 3.3-1 6.07 6.07 0 0 0 2-2.9h-6.7v-3.9H55v5a10.23 10.23 0 0 1-2 3.7 11 11 0 0 1-3.6 2.8 11.7 11.7 0 0 1-4.9 1.1 12.32 12.32 0 0 1-5.7-1.4 10.43 10.43 0 0 1-3.9-3.9 12.71 12.71 0 0 1 0-11.6 10 10 0 0 1 3.9-4 10.29 10.29 0 0 1 5.7-1.4 10.77 10.77 0 0 1 6.5 1.9 8.8 8.8 0 0 1 3.5 5.3Zm17 15.2a9.84 9.84 0 0 1-4.2-.8 7.56 7.56 0 0 1-3-2.3 6.28 6.28 0 0 1-1.2-3.7H63a2.73 2.73 0 0 0 .8 1.9 2.47 2.47 0 0 0 1.8.6 3.45 3.45 0 0 0 1.8-.5 1.8 1.8 0 0 0 .7-1.5 1.9 1.9 0 0 0-.5-1.3 3.81 3.81 0 0 0-1.3-.9 19.45 19.45 0 0 0-2.2-.8 19.89 19.89 0 0 1-3.4-1.3 7.1 7.1 0 0 1-2.3-1.9 5.58 5.58 0 0 1-1-3.3 5.65 5.65 0 0 1 2.2-4.8 8.93 8.93 0 0 1 5.7-1.7 9.21 9.21 0 0 1 5.8 1.7 6 6 0 0 1 2.3 4.8h-5.7a2.46 2.46 0 0 0-.8-1.7 3 3 0 0 0-1.8-.6 2.46 2.46 0 0 0-1.5.5 2 2 0 0 0-.6 1.5 2.06 2.06 0 0 0 1 1.7 16.92 16.92 0 0 0 3.1 1.3 20.25 20.25 0 0 1 3.4 1.4 7.1 7.1 0 0 1 2.3 1.9 5.28 5.28 0 0 1 1 3.2 6.65 6.65 0 0 1-.9 3.4 6.22 6.22 0 0 1-2.7 2.4 10.92 10.92 0 0 1-4.32.8Z" fill="#3b3b3b"/>
  </g>
  <path d="M80.28 101.51c-.3 0-.5-.2-.7-.5-.5-1.1-1-2.3-1.5-3.4s-1-2.3-1.6-3.4c0-.1-.1-.2-.1-.3a.81.81 0 0 0-1.4-.2L71.38 97a2.18 2.18 0 0 1-.5.4c-.4.3-.7.1-.8-.3v-.4c0-3-.1-5.9-.1-8.9 0-4-.1-7.9-.2-11.9a.6.6 0 0 1 1.1-.5c3 2.7 6 5.4 9.1 8.1l6.3 5.7.4.4c.2.3.1.6-.3.7s-.8.1-1.2.2c-1.5.1-2.9.3-4.4.4-.6.1-.9.6-.7 1.3.2.5.4 1 .6 1.4.8 1.8 1.6 3.6 2.5 5.4.3.6.2.9-.5 1.2s-1.4.7-2.2 1c.1.31-.1.31-.2.31ZM68.68 72.61c-.3 0-.4-.2-.5-.4-.5-1-.9-2-1.4-3-.2-.4-.4-.9-.6-1.3a.57.57 0 0 1 .2-.7.52.52 0 0 1 .7.3c.7 1.5 1.4 3 2 4.5.3.2.1.5-.4.6ZM73.08 72.41c-.4 0-.7-.3-.5-.7.6-1.5 1.1-3.1 1.7-4.6a.54.54 0 0 1 1 .4c-.3.9-.7 1.8-1 2.6-.2.6-.5 1.3-.7 1.9-.1.2-.2.4-.5.4ZM75.68 74.81a.66.66 0 0 1 .4-.5c1.1-.5 2.2-1 3.2-1.5a6.12 6.12 0 0 1 1.2-.5c.3-.1.6-.1.7.2a.52.52 0 0 1-.3.7c-1.5.7-2.9 1.3-4.4 2a.47.47 0 0 1-.8-.4ZM65.88 79a.55.55 0 0 1 .6.4.48.48 0 0 1-.2.6c-.2.1-.5.2-.7.3-1.3.6-2.5 1.1-3.8 1.7a.64.64 0 0 1-.6 0c-.2-.1-.2-.3-.2-.5s.2-.3.4-.4c.9-.4 1.9-.8 2.8-1.3.5-.2 1-.5 1.5-.7a.35.35 0 0 1 .2-.1ZM66.28 75.21c0 .4-.3.7-.7.5-.7-.3-1.4-.5-2.1-.8l-2.4-.9a.53.53 0 0 1-.2-.9c.2-.2.4-.1.6-.1.9.3 1.8.7 2.6 1 .6.2 1.2.5 1.9.7a.62.62 0 0 1 .3.5Z"/>
  <text transform="translate(96.26 53.25)" font-size="22.52" font-family="Poppins-ExtraBold, Poppins" font-weight="800" style="isolation:isolate">X</text>
  <text transform="translate(127.53 58.34)" font-size="37.54" font-family="Poppins-ExtraBold, Poppins" font-weight="800" style="isolation:isolate">5</text>
  <text transform="translate(164.53 55.89)" font-size="30" font-family="Poppins-ExtraBold, Poppins" font-weight="800" style="isolation:isolate">=</text>
  <text transform="translate(195.4 56.57)" font-size="30.25" font-family="Poppins-ExtraBold, Poppins" font-weight="800" style="isolation:isolate">???</text>
</svg>
