<svg version="1.1" id="Layer_1" xmlns="http://www.w3.org/2000/svg" x="0" y="0" viewBox="0 0 263.5 146.8" xml:space="preserve">
  <path d="M243.9 7.9H19.7C12.2 7.9 6 14.3 6 22.1V94c0 7.8 6.1 14.2 13.7 14.2H124c.6 0 .4.8.4 5.6 0 16.7 19.3 23.9 19.3 23.9s-3.1-7.9-3.1-19.6c0-5.3.5-7.2 3.4-8.9 1.2-.7 2.1-1 4.2-1H244c7.5 0 13.7-6.4 13.7-14.2V22.1c-.1-7.8-6.2-14.2-13.8-14.2z" fill="#fff" stroke="#000" stroke-width="5" stroke-miterlimit="10"/>
  <g id="Group_49" transform="translate(-7 -10)">
    <g id="border-effect" fill="none">
      <path d="M24.9 25.3h40c2.7 0 4.8 2.1 4.8 4.8v23.2c0 2.7-2.1 4.8-4.8 4.8h-40c-2.7 0-4.8-2.1-4.8-4.8V30.1c0-2.6 2.2-4.8 4.8-4.8z" transform="translate(7 10)"/>
      <path d="M31.9 37.7h40c1.3 0 2.4 1.1 2.4 2.4v23.2c0 1.3-1.1 2.4-2.4 2.4h-40c-1.3 0-2.4-1.1-2.4-2.4V40.1c0-1.3 1.1-2.4 2.4-2.4z" stroke="#52ff12" stroke-width="6"/>
    </g>
    <path id="text" d="M55.9 57.7c-.4-.7-1-1.3-1.7-1.7-.8-.4-1.7-.6-2.6-.6-1.5-.1-3 .6-4.1 1.7-1.1 1.3-1.6 2.9-1.5 4.5-.1 1.7.5 3.4 1.6 4.7 1.2 1.2 2.8 1.8 4.4 1.7 1.2 0 2.3-.3 3.3-1 .9-.7 1.6-1.7 2-2.9h-6.7v-3.9H62v5c-.4 1.4-1.1 2.6-2 3.7-1 1.2-2.2 2.1-3.6 2.8-1.5.7-3.2 1.1-4.9 1.1-2 0-4-.5-5.7-1.4-1.6-.9-3-2.3-3.9-3.9-1-1.8-1.4-3.8-1.4-5.8s.4-4 1.4-5.8c.9-1.7 2.2-3 3.9-4s3.7-1.5 5.7-1.4c2.3-.1 4.6.6 6.5 1.9 1.8 1.3 3 3.1 3.5 5.3h-5.6zm17 15.2c-1.5 0-2.9-.2-4.2-.8-1.2-.5-2.2-1.3-3-2.3-.8-1.1-1.2-2.4-1.2-3.7H70c0 .7.3 1.4.8 1.9.5.4 1.2.7 1.8.6.7 0 1.3-.2 1.8-.5.5-.4.7-.9.7-1.5 0-.5-.2-1-.5-1.3-.4-.4-.8-.7-1.3-.9-.7-.3-1.5-.6-2.2-.8-1.2-.3-2.3-.8-3.4-1.3-.9-.5-1.7-1.1-2.3-1.9-.7-1-1-2.1-1-3.3-.1-1.9.7-3.6 2.2-4.8 1.6-1.2 3.7-1.8 5.7-1.7 2.1-.1 4.1.5 5.8 1.7 1.5 1.2 2.3 2.9 2.3 4.8h-5.7c0-.6-.3-1.2-.8-1.7-.5-.4-1.2-.6-1.8-.6-.6 0-1.1.2-1.5.5-.4.4-.6.9-.6 1.5 0 .7.4 1.3 1 1.7 1 .5 2 1 3.1 1.3 1.2.4 2.3.8 3.4 1.4.9.5 1.7 1.1 2.3 1.9.7.9 1 2.1 1 3.2 0 1.2-.3 2.4-.9 3.4-.7 1.1-1.6 1.9-2.7 2.4-1.4.5-2.9.9-4.3.8z" fill="#3b3b3b"/>
  </g>
  <path d="M80.3 101.5c-.3 0-.5-.2-.7-.5-.5-1.1-1-2.3-1.5-3.4s-1-2.3-1.6-3.4c0-.1-.1-.2-.1-.3-.3-.6-.9-.7-1.4-.2L71.4 97c-.1.1-.3.3-.5.4-.4.3-.7.1-.8-.3v-.4c0-3-.1-5.9-.1-8.9 0-4-.1-7.9-.2-11.9 0-.3 0-.6.3-.8.3-.1.6.1.8.3 3 2.7 6 5.4 9.1 8.1l6.3 5.7.4.4c.2.3.1.6-.3.7s-.8.1-1.2.2c-1.5.1-2.9.3-4.4.4-.6.1-.9.6-.7 1.3.2.5.4 1 .6 1.4.8 1.8 1.6 3.6 2.5 5.4.3.6.2.9-.5 1.2-.7.3-1.4.7-2.2 1 .1.3-.1.3-.2.3zM68.7 72.6c-.3 0-.4-.2-.5-.4-.5-1-.9-2-1.4-3-.2-.4-.4-.9-.6-1.3-.1-.3 0-.6.2-.7.3-.1.6 0 .7.3.7 1.5 1.4 3 2 4.5.3.2.1.5-.4.6zM73.1 72.4c-.4 0-.7-.3-.5-.7.6-1.5 1.1-3.1 1.7-4.6.1-.3.4-.4.7-.3.3.1.4.4.3.7-.3.9-.7 1.8-1 2.6-.2.6-.5 1.3-.7 1.9-.1.2-.2.4-.5.4zM75.7 74.8c0-.2.2-.4.4-.5 1.1-.5 2.2-1 3.2-1.5.4-.2.8-.4 1.2-.5.3-.1.6-.1.7.2.1.3 0 .6-.3.7-1.5.7-2.9 1.3-4.4 2-.4.3-.8.1-.8-.4zM65.9 79c.3 0 .5.1.6.4.1.2 0 .5-.2.6s-.5.2-.7.3c-1.3.6-2.5 1.1-3.8 1.7-.2.1-.4.1-.6 0s-.2-.3-.2-.5.2-.3.4-.4c.9-.4 1.9-.8 2.8-1.3.5-.2 1-.5 1.5-.7 0 0 .1-.1.2-.1zM66.3 75.2c0 .4-.3.7-.7.5-.7-.3-1.4-.5-2.1-.8l-2.4-.9c-.4-.2-.5-.6-.2-.9.2-.2.4-.1.6-.1.9.3 1.8.7 2.6 1 .6.2 1.2.5 1.9.7.1.1.3.2.3.5z"/>
  <g class="st4">
    <path d="m107.5 53.3-3.1-4.5-2.6 4.5h-5l5.2-8.1-5.3-7.7h5.2l3 4.4 2.6-4.4h5l-5.1 8 5.4 7.9h-5.3z"/>
  </g>
  <g class="st4">
    <path d="M149 37.4h-11.3v4.2c.5-.5 1.1-.9 2-1.2.8-.3 1.7-.5 2.7-.5 1.8 0 3.3.4 4.5 1.2 1.2.8 2.1 1.9 2.7 3.3.6 1.4.9 2.8.9 4.4 0 3-.8 5.3-2.5 7-1.7 1.7-4 2.5-7 2.5-2.1 0-3.9-.4-5.4-1.1-1.5-.7-2.7-1.7-3.5-3-.8-1.3-1.2-2.7-1.2-4.4h7.2c.1.6.3 1.1.8 1.5.4.4 1.1.6 1.9.6.9 0 1.5-.3 2-.9.5-.6.7-1.4.7-2.4s-.2-1.7-.7-2.2c-.5-.5-1.2-.8-2.1-.8-.7 0-1.2.2-1.6.5s-.7.8-.7 1.3H131V30.9h18v6.5z"/>
  </g>
  <g class="st4">
    <path d="M183 38.9v5.3h-17.2v-5.3H183zm0 8v5.3h-17.2v-5.3H183z"/>
  </g>
  <g class="st4">
    <path d="M208.9 35.4c1.3 1.1 2 2.7 2 4.8 0 1.8-.6 3.3-1.8 4.4-1.2 1.1-2.8 1.6-4.8 1.7l-.2 2.2h-5.2l-.2-6h2.2c1.4 0 2.4-.2 3.1-.5s1.1-.9 1.1-1.7c0-.5-.1-1-.4-1.3-.3-.3-.7-.5-1.2-.5-.6 0-1 .2-1.3.5s-.4.8-.4 1.3h-5.6c0-1.2.2-2.4.8-3.4.6-1 1.4-1.8 2.5-2.4 1.1-.6 2.5-.9 4.2-.9 2.1.1 3.8.6 5.2 1.8zM199 56c-.6-.6-1-1.3-1-2.2s.3-1.6 1-2.2 1.5-.9 2.5-.9 1.9.3 2.5.9 1 1.3 1 2.2c0 .9-.3 1.6-1 2.2-.6.6-1.5.9-2.5.9-1.1-.1-1.9-.4-2.5-.9zM225.1 35.4c1.3 1.1 2 2.7 2 4.8 0 1.8-.6 3.3-1.8 4.4-1.2 1.1-2.8 1.6-4.8 1.7l-.2 2.2h-5.2l-.2-6h2.2c1.4 0 2.4-.2 3.1-.5s1.1-.9 1.1-1.7c0-.5-.1-1-.4-1.3-.3-.3-.7-.5-1.2-.5-.6 0-1 .2-1.3.5s-.4.8-.4 1.3h-5.6c0-1.2.2-2.4.8-3.4.6-1 1.4-1.8 2.5-2.4 1.1-.6 2.5-.9 4.2-.9 2.1.1 3.9.6 5.2 1.8zM215.2 56c-.6-.6-1-1.3-1-2.2s.3-1.6 1-2.2 1.5-.9 2.5-.9 1.9.3 2.5.9 1 1.3 1 2.2c0 .9-.3 1.6-1 2.2-.6.6-1.5.9-2.5.9-1-.1-1.8-.4-2.5-.9zM241.4 35.4c1.3 1.1 2 2.7 2 4.8 0 1.8-.6 3.3-1.8 4.4-1.2 1.1-2.8 1.6-4.8 1.7l-.2 2.2h-5.2l-.2-6h2.2c1.4 0 2.4-.2 3.1-.5s1.1-.9 1.1-1.7c0-.5-.1-1-.4-1.3-.3-.3-.7-.5-1.2-.5-.6 0-1 .2-1.3.5s-.4.8-.4 1.3h-5.6c0-1.2.2-2.4.8-3.4.6-1 1.4-1.8 2.5-2.4 1.1-.6 2.5-.9 4.2-.9 2.1.1 3.9.6 5.2 1.8zM231.5 56c-.6-.6-1-1.3-1-2.2s.3-1.6 1-2.2 1.5-.9 2.5-.9 1.9.3 2.5.9 1 1.3 1 2.2c0 .9-.3 1.6-1 2.2-.6.6-1.5.9-2.5.9-1-.1-1.9-.4-2.5-.9z"/>
  </g>
</svg>
