<svg data-name="App_Store_(iOS)" xmlns="http://www.w3.org/2000/svg" viewBox="0 0 24 23.997">
  <defs>
    <linearGradient id="a" x1=".5" y1=".998" x2=".5" y2="-.002" gradientUnits="objectBoundingBox">
      <stop offset="0" stop-color="#18bffb"/>
      <stop offset="1" stop-color="#2072f3"/>
    </linearGradient>
  </defs>
  <path data-name="Path 19" d="M19.15 0H4.847A4.845 4.845 0 000 4.847v14.306A4.845 4.845 0 004.847 24h14.306A4.847 4.847 0 0024 19.15V4.847A4.85 4.85 0 0019.15 0z" fill="url(#a)"/>
  <path data-name="Path 20" d="M11.898 5.514l.486-.84a1.096 1.096 0 011.9 1.092l-4.682 8.1h3.387a1.5 1.5 0 011.236 2.184H4.296a1.092 1.092 0 110-2.184H7.08l3.564-6.176-1.113-1.932a1.096 1.096 0 111.9-1.092l.477.843zM7.685 17.183l-1.05 1.821a1.096 1.096 0 01-1.9-1.092l.78-1.35a1.869 1.869 0 012.166.621zm9.041-3.3h2.841a1.092 1.092 0 110 2.184h-1.578l1.065 1.848a1.096 1.096 0 01-1.9 1.092q-2.691-4.666-4.035-6.989a3.021 3.021 0 01.384-3.7q1.075 1.845 3.219 5.564z" fill="#fff"/>
</svg>
