<svg xmlns="http://www.w3.org/2000/svg" viewBox="0 0 24 22.325">
  <defs>
    <linearGradient id="a" x1=".174" y1="1.067" x2=".826" y2="-.063" gradientUnits="objectBoundingBox">
      <stop offset="0" stop-color="#5a62c3"/>
      <stop offset=".5" stop-color="#4d55bd"/>
      <stop offset="1" stop-color="#3940ab"/>
    </linearGradient>
  </defs>
  <path data-name="Path 21" d="M16.74 8.372h6.2a1.06 1.06 0 011.061 1.06v5.647a3.9 3.9 0 01-3.9 3.9h-.018a3.9 3.9 0 01-3.9-3.9V8.926a.554.554 0 01.554-.554z" fill="#5059c9"/>
  <circle data-name="Ellipse 38" cx="2.512" cy="2.512" r="2.512" transform="translate(18.419 2.233)" fill="#5059c9"/>
  <circle data-name="Ellipse 39" cx="3.628" cy="3.628" r="3.628" transform="translate(9.488)" fill="#7b83eb"/>
  <path data-name="Path 22" d="M17.957 8.372H7.72a1.049 1.049 0 00-1.023 1.073v6.44a6.147 6.147 0 1012.279 0v-6.44a1.049 1.049 0 00-1.019-1.073z" fill="#7b83eb"/>
  <path data-name="Path 23" d="M13.395 8.372v9.025a1.027 1.027 0 01-.636.943.988.988 0 01-.385.078H7.189a8.215 8.215 0 01-.2-.558 6.8 6.8 0 01-.3-1.976V9.443A1.047 1.047 0 017.71 8.371z" opacity=".1"/>
  <path data-name="Path 24" d="M12.837 8.372v9.583a.988.988 0 01-.078.385 1.027 1.027 0 01-.943.636H7.451a7.065 7.065 0 01-.262-.558 5.537 5.537 0 01-.2-.558 6.8 6.8 0 01-.3-1.976V9.443A1.047 1.047 0 017.71 8.371z" opacity=".2"/>
  <path data-name="Path 25" d="M12.837 8.372v8.467a1.029 1.029 0 01-1.021 1.021H6.994a6.8 6.8 0 01-.3-1.976V9.443a1.048 1.048 0 011.021-1.072z" opacity=".2"/>
  <path data-name="Path 26" d="M12.279 8.372v8.467a1.029 1.029 0 01-1.021 1.021H6.994a6.8 6.8 0 01-.3-1.976V9.443a1.048 1.048 0 011.021-1.072z" opacity=".2"/>
  <path data-name="Path 27" d="M13.393 5.486v1.758c-.095.006-.184.011-.279.011s-.184-.006-.279-.011a3.061 3.061 0 01-.558-.089 3.628 3.628 0 01-2.512-2.132 3.1 3.1 0 01-.179-.558h2.785a1.025 1.025 0 011.022 1.021z" opacity=".1"/>
  <path data-name="Path 28" d="M12.838 6.044v1.2a3.067 3.067 0 01-.558-.089 3.628 3.628 0 01-2.512-2.132h2.048a1.025 1.025 0 011.022 1.021z" opacity=".2"/>
  <path data-name="Path 29" d="M12.838 6.044v1.2a3.067 3.067 0 01-.558-.089 3.628 3.628 0 01-2.512-2.132h2.048a1.025 1.025 0 011.022 1.021z" opacity=".2"/>
  <path data-name="Path 30" d="M12.279 6.044v1.111a3.628 3.628 0 01-2.512-2.132h1.49a1.025 1.025 0 011.022 1.021z" opacity=".2"/>
  <path data-name="Path 31" d="M1.023 466.5h10.233a1.023 1.023 0 011.023 1.023v10.233a1.023 1.023 0 01-1.023 1.023H1.023A1.023 1.023 0 010 477.756v-10.233a1.023 1.023 0 011.023-1.023z" transform="translate(0 -461.477)" fill="url(#a)"/>
  <path data-name="Path 32" d="M8.832 8.918H6.786v5.57h-1.3v-5.57H3.45V7.837h5.385z" fill="#fff"/>
</svg>
